<svg width="24" height="24" viewBox="0 0 24 24" fill="none" xmlns="http://www.w3.org/2000/svg">
<path d="M3.37472 8.00567C5.79848 3.5276 11.4169 1.95628 15.799 4.48628L16.694 2.93609C16.919 2.54638 17.4966 2.62585 17.6051 3.05798L18.6349 6.87419C18.7082 7.1474 18.5532 7.41587 18.2799 7.48907L14.4601 8.50528C14.0316 8.62741 13.679 8.15822 13.899 7.77717L14.799 6.21833C11.4215 4.26833 7.10347 5.44729 5.18677 8.86711C3.37007 12.1137 4.51573 16.3894 7.71235 18.2927C11.0735 20.291 15.4111 19.158 17.3611 15.7805C18.1661 14.3862 18.4348 12.8208 18.2194 11.3339C18.1509 10.8325 18.4569 10.3625 18.9487 10.2308C19.5311 10.082 20.1223 10.458 20.2077 11.05C20.4783 12.9614 20.1332 14.9792 19.0932 16.7805C16.5682 21.1539 10.9119 22.611 6.57378 19.9447C2.57712 17.4872 1.14231 12.1323 3.37472 8.00567Z" fill="#737373"/>
</svg>
