<svg width="16" height="16" viewBox="0 0 16 16" fill="none" xmlns="http://www.w3.org/2000/svg">
<path d="M12.6667 7.33332H8.66667V3.33332C8.66667 3.15651 8.59643 2.98694 8.47141 2.86192C8.34639 2.73689 8.17682 2.66666 8 2.66666C7.82319 2.66666 7.65362 2.73689 7.5286 2.86192C7.40358 2.98694 7.33334 3.15651 7.33334 3.33332V7.33332H3.33334C3.15653 7.33332 2.98696 7.40356 2.86193 7.52858C2.73691 7.65361 2.66667 7.82318 2.66667 7.99999C2.66667 8.1768 2.73691 8.34637 2.86193 8.47139C2.98696 8.59642 3.15653 8.66666 3.33334 8.66666H7.33334V12.6667C7.33334 12.8435 7.40358 13.013 7.5286 13.1381C7.65362 13.2631 7.82319 13.3333 8 13.3333C8.17682 13.3333 8.34639 13.2631 8.47141 13.1381C8.59643 13.013 8.66667 12.8435 8.66667 12.6667V8.66666H12.6667C12.8435 8.66666 13.0131 8.59642 13.1381 8.47139C13.2631 8.34637 13.3333 8.1768 13.3333 7.99999C13.3333 7.82318 13.2631 7.65361 13.1381 7.52858C13.0131 7.40356 12.8435 7.33332 12.6667 7.33332Z" fill="#0061FF"/>
</svg>
